HIERARCHY
ROOT Hips
{
	OFFSET 0.000000 0.000000 0.000000
	CHANNELS 6 Xposition Yposition Zposition Xrotation Yrotation Zrotation
	JOINT LeftUpLeg_virtual
	{
		OFFSET 0.000000 0.000000 0.000000
		CHANNELS 3 Xrotation Yrotation Zrotation
		JOINT LeftUpLeg
		{
			OFFSET 11.394100 -6.187798 -0.413800
			CHANNELS 3 Xrotation Yrotation Zrotation
			JOINT LeftLeg
			{
				OFFSET 0.430247 -32.302673 3.732800
				CHANNELS 3 Xrotation Yrotation Zrotation
				JOINT LeftFoot
				{
					OFFSET -0.430247 -48.264931 -6.423300
					CHANNELS 3 Xrotation Yrotation Zrotation
					JOINT LeftToeBase
					{
						OFFSET 4.230900 -16.068199 23.438400
						CHANNELS 3 Xrotation Yrotation Zrotation
						JOINT LeftToe_End
						{
							OFFSET 4.510700 0.695400 19.974600
							CHANNELS 3 Xrotation Yrotation Zrotation
							End Site
							{
								OFFSET 0 0 0
							}
						}
					}
				}
			}
		}
	}
	JOINT RightUpLeg_virtual
	{
		OFFSET 0.000000 0.000000 0.000000
		CHANNELS 3 Xrotation Yrotation Zrotation
		JOINT RightUpLeg
		{
			OFFSET -11.333700 -6.187798 -0.413800
			CHANNELS 3 Xrotation Yrotation Zrotation
			JOINT RightLeg
			{
				OFFSET -0.430392 -32.302628 3.733000
				CHANNELS 3 Xrotation Yrotation Zrotation
				JOINT RightFoot
				{
					OFFSET 0.430392 -48.264973 -6.423500
					CHANNELS 3 Xrotation Yrotation Zrotation
					JOINT RightToeBase
					{
						OFFSET -4.230900 -16.068199 23.438400
						CHANNELS 3 Xrotation Yrotation Zrotation
						JOINT RightToe_End
						{
							OFFSET -4.510700 0.695400 19.974600
							CHANNELS 3 Xrotation Yrotation Zrotation
							End Site
							{
								OFFSET 0 0 0
							}
						}
					}
				}
			}
		}
	}
	JOINT Spine_virtual
	{
		OFFSET 0.000000 0.000000 0.000000
		CHANNELS 3 Xrotation Yrotation Zrotation
		JOINT Spine
		{
			OFFSET -0.002400 12.777504 0.315300
			CHANNELS 3 Xrotation Yrotation Zrotation
			JOINT Spine1
			{
				OFFSET -0.002067 5.816869 0.032633
				CHANNELS 3 Xrotation Yrotation Zrotation
				JOINT Spine1_split
				{
					OFFSET -0.002067 5.816869 0.032633
					CHANNELS 3 Xrotation Yrotation Zrotation
					JOINT Spine2
					{
						OFFSET -0.002067 5.816869 0.032633
						CHANNELS 3 Xrotation Yrotation Zrotation
						JOINT Neck_virtual
						{
							OFFSET 0.000000 0.000000 0.000000
							CHANNELS 3 Xrotation Yrotation Zrotation
							JOINT Neck
							{
								OFFSET -0.003700 21.199493 -0.826900
								CHANNELS 3 Xrotation Yrotation Zrotation
								JOINT Head
								{
									OFFSET 0.000000 20.442200 4.834800
									CHANNELS 3 Xrotation Yrotation Zrotation
									JOINT HeadTop_End
									{
										OFFSET 0.000000 34.668396 4.968400
										CHANNELS 3 Xrotation Yrotation Zrotation
										End Site
										{
											OFFSET 0 0 0
										}
									}
								}
							}
						}
						JOINT LeftShoulder_virtual
						{
							OFFSET 0.000000 0.000000 0.000000
							CHANNELS 3 Xrotation Yrotation Zrotation
							JOINT LeftShoulder
							{
								OFFSET 3.288150 8.794197 -1.372250
								CHANNELS 3 Xrotation Yrotation Zrotation
								JOINT LeftShoulder_split
								{
									OFFSET 3.288150 8.794197 -1.372250
									CHANNELS 3 Xrotation Yrotation Zrotation
									JOINT LeftArm
									{
										OFFSET 11.953299 -2.279007 -0.146200
										CHANNELS 3 Xrotation Yrotation Zrotation
										JOINT LeftForeArm
										{
											OFFSET 18.448900 0.000000 0.000000
											CHANNELS 3 Xrotation Yrotation Zrotation
											JOINT LeftHand
											{
												OFFSET 29.527798 0.000000 0.000000
												CHANNELS 3 Xrotation Yrotation Zrotation
												End Site
												{
													OFFSET 0 0 0
												}
											}
										}
									}
								}
							}
						}
						JOINT RightShoulder_virtual
						{
							OFFSET 0.000000 0.000000 0.000000
							CHANNELS 3 Xrotation Yrotation Zrotation
							JOINT RightShoulder
							{
								OFFSET -3.249400 8.794197 -1.372250
								CHANNELS 3 Xrotation Yrotation Zrotation
								JOINT RightShoulder_split
								{
									OFFSET -3.249400 8.794197 -1.372250
									CHANNELS 3 Xrotation Yrotation Zrotation
									JOINT RightArm
									{
										OFFSET -11.953299 -2.279007 -0.146200
										CHANNELS 3 Xrotation Yrotation Zrotation
										JOINT RightForeArm
										{
											OFFSET -18.448900 0.000000 0.000000
											CHANNELS 3 Xrotation Yrotation Zrotation
											JOINT RightHand
											{
												OFFSET -29.527802 0.000000 0.000000
												CHANNELS 3 Xrotation Yrotation Zrotation
												End Site
												{
													OFFSET 0 0 0
												}
											}
										}
									}
								}
							}
						}
					}
				}
			}
		}
	}
}
MOTION
Frames: 11
Frame Time: 0.03333333
0.492571 52.635353 -3.687080 0.000000 0.000000 0.000000 178.671000 -7.984948 172.134236 -89.557468 -19.019254 13.154916 105.724177 4.262447 1.846589 -14.957249 4.086948 -15.738730 -8.955797 0.119871 2.710138 0.000000 0.000000 0.000000 178.348397 -4.319632 172.588922 -63.639126 18.105238 -24.616871 101.147486 3.243022 -1.141168 -22.425009 -6.877724 32.584421 -4.701288 -5.071200 -1.220958 0.000000 0.000000 0.000000 179.071168 -5.826110 169.744066 6.934753 4.776035 -2.853885 8.076940 7.106846 -3.978309 0.586575 -3.544533 0.729590 0.000000 0.000000 0.000000 7.861707 6.587468 -3.803326 -3.095284 23.931610 6.798114 5.701674 33.961722 -24.668249 0.000000 0.000000 0.000000 8.522351 6.893601 -4.072994 0.899281 -13.557039 -10.436375 -3.409701 -1.401867 -3.835635 3.648606 2.730766 -31.463796 36.930758 -40.705199 1.332881 0.000000 0.000000 0.000000 8.056468 6.927291 -4.360584 5.020596 -18.083645 13.649199 1.127455 2.118518 -1.514204 13.214020 -13.306372 60.211772 34.459991 50.460396 -8.464863 0.000000 0.000000 0.000000 
0.482109 52.637806 -3.658497 0.000000 0.000000 0.000000 178.664648 -7.974773 172.144290 -89.556409 -19.028157 13.156170 105.722265 4.266112 1.861082 -14.939382 4.078570 -15.730605 -8.952158 0.118936 2.710522 0.000000 0.000000 0.000000 178.341376 -4.316536 172.597132 -63.640977 18.102433 -24.610270 101.138313 3.242583 -1.141856 -22.434354 -6.876433 32.599127 -4.704467 -5.064593 -1.227515 0.000000 0.000000 0.000000 179.053641 -5.814790 169.757904 6.926152 4.774333 -2.844533 8.065326 7.105497 -3.967304 0.562242 -3.548793 0.731944 0.000000 0.000000 0.000000 7.860212 6.588282 -3.794296 -3.049870 23.947919 6.775015 5.683766 33.961763 -24.653023 0.000000 0.000000 0.000000 8.519882 6.892223 -4.062462 0.901252 -13.578548 -10.448412 -3.421257 -1.413764 -3.846343 3.613355 2.761493 -31.461344 36.924255 -40.672025 1.320301 0.000000 0.000000 0.000000 8.044080 6.924532 -4.350569 5.024131 -18.081632 13.635051 1.138903 2.097280 -1.514680 13.198510 -13.303890 60.207585 34.447298 50.436483 -8.463354 0.000000 0.000000 0.000000 
0.466576 52.645500 -3.636326 0.000000 0.000000 0.000000 178.635702 -7.983169 172.144454 -89.550740 -19.028760 13.141667 105.708850 4.272410 1.874109 -14.918757 4.063944 -15.713197 -8.950799 0.117484 2.710395 0.000000 0.000000 0.000000 178.313672 -4.332796 172.599017 -63.646756 18.100917 -24.614211 101.137500 3.240974 -1.140719 -22.431876 -6.863683 32.631666 -4.703007 -5.059615 -1.241637 0.000000 0.000000 0.000000 179.019941 -5.820467 169.764461 6.917238 4.764315 -2.834990 8.050476 7.106335 -3.949152 0.559674 -3.542150 0.736876 0.000000 0.000000 0.000000 7.846910 6.592891 -3.777827 -2.964656 23.955879 6.736472 5.700250 33.961299 -24.684003 0.000000 0.000000 0.000000 8.510817 6.893067 -4.045248 0.898809 -13.625837 -10.473497 -3.431132 -1.408500 -3.859059 3.575446 2.816673 -31.464865 36.910981 -40.647774 1.306908 0.000000 0.000000 0.000000 8.023903 6.926336 -4.332087 5.033300 -18.082945 13.595202 1.156002 2.089512 -1.515690 13.163805 -13.270976 60.234380 34.423668 50.349542 -8.457853 0.000000 0.000000 0.000000 
0.450505 52.656639 -3.624119 0.000000 0.000000 0.000000 178.589257 -8.009467 172.133444 -89.546007 -19.017367 13.114211 105.687342 4.281571 1.883402 -14.905713 4.046625 -15.686166 -8.935971 0.116613 2.705118 0.000000 0.000000 0.000000 178.269044 -4.364747 172.590725 -63.648279 18.103234 -24.628559 101.147937 3.236309 -1.138094 -22.426255 -6.847373 32.677944 -4.695833 -5.056642 -1.259587 0.000000 0.000000 0.000000 178.974015 -5.845513 169.760664 6.913597 4.749086 -2.827123 8.037142 7.112115 -3.926133 0.573527 -3.532323 0.736391 0.000000 0.000000 0.000000 7.826940 6.602863 -3.756513 -2.850675 23.953137 6.694687 5.758653 33.967364 -24.767222 0.000000 0.000000 0.000000 8.499454 6.897370 -4.023787 0.891907 -13.693835 -10.509553 -3.437765 -1.389108 -3.863474 3.533010 2.884950 -31.471685 36.892406 -40.638437 1.295223 0.000000 0.000000 0.000000 8.002332 6.934868 -4.307856 5.046664 -18.089520 13.532866 1.172869 2.093848 -1.527110 13.109013 -13.205296 60.292429 34.386953 50.200391 -8.446915 0.000000 0.000000 0.000000 
0.435136 52.669346 -3.616451 0.000000 0.000000 0.000000 178.530585 -8.051352 172.113623 -89.548172 -18.998844 13.074842 105.662808 4.287790 1.892227 -14.896521 4.025493 -15.659858 -8.900066 0.116809 2.695020 0.000000 0.000000 0.000000 178.213979 -4.408700 172.572748 -63.636920 18.108973 -24.651208 101.167915 3.225839 -1.133852 -22.423178 -6.837787 32.728682 -4.683743 -5.057120 -1.275361 0.000000 0.000000 0.000000 178.920166 -5.891097 169.750036 6.917777 4.734147 -2.821888 8.029430 7.124078 -3.900423 0.585858 -3.522582 0.734948 0.000000 0.000000 0.000000 7.807379 6.619013 -3.733521 -2.719664 23.941994 6.665507 5.866035 33.985334 -24.906549 0.000000 0.000000 0.000000 8.492020 6.906341 -4.000222 0.882187 -13.774022 -10.552325 -3.433886 -1.365967 -3.856877 3.484136 2.957448 -31.478754 36.871741 -40.653436 1.289728 0.000000 0.000000 0.000000 7.986299 6.950782 -4.281102 5.063022 -18.108922 13.452467 1.176332 2.098454 -1.546338 13.035316 -13.107192 60.373094 34.338988 49.999857 -8.432978 0.000000 0.000000 0.000000 
0.421544 52.680565 -3.608307 0.000000 0.000000 0.000000 178.466723 -8.105552 172.087777 -89.559995 -18.981012 13.025473 105.634859 4.285570 1.903259 -14.885687 3.997519 -15.638475 -8.857440 0.115861 2.688957 0.000000 0.000000 0.000000 178.153313 -4.465306 172.544362 -63.611608 18.117524 -24.679765 101.193378 3.208863 -1.128286 -22.426380 -6.842256 32.779809 -4.671065 -5.060719 -1.285263 0.000000 0.000000 0.000000 178.863147 -5.953158 169.731936 6.931165 4.724860 -2.819573 8.030566 7.143237 -3.874792 0.591656 -3.516618 0.739006 0.000000 0.000000 0.000000 7.794590 6.640695 -3.711931 -2.585081 23.923723 6.660688 6.024670 34.016849 -25.100631 0.000000 0.000000 0.000000 8.495420 6.919869 -3.976345 0.871679 -13.856208 -10.596706 -3.424100 -1.340806 -3.842677 3.420889 3.020337 -31.481585 36.848034 -40.699219 1.293337 0.000000 0.000000 0.000000 7.981920 6.972708 -4.254719 5.080564 -18.146503 13.359284 1.174919 2.099751 -1.574650 12.947132 -12.979621 60.471387 34.285313 49.764495 -8.421968 0.000000 0.000000 0.000000 
0.412115 52.691799 -3.601650 0.000000 0.000000 0.000000 178.404459 -8.170148 172.058148 -89.580451 -18.970120 12.970821 105.602142 4.273914 1.913765 -14.870473 3.962168 -15.617839 -8.822219 0.112439 2.689164 0.000000 0.000000 0.000000 178.093904 -4.534008 172.507752 -63.568974 18.124590 -24.709828 101.215071 3.182955 -1.120068 -22.433685 -6.865211 32.829601 -4.665952 -5.068111 -1.286956 0.000000 0.000000 0.000000 178.806074 -6.026626 169.707948 6.950854 4.724961 -2.819732 8.043215 7.167953 -3.850029 0.591348 -3.504374 0.746993 0.000000 0.000000 0.000000 7.793643 6.666227 -3.693109 -2.456678 23.900198 6.689961 6.226932 34.061074 -25.338094 0.000000 0.000000 0.000000 8.513035 6.936801 -3.953503 0.862955 -13.930965 -10.640718 -3.413076 -1.319225 -3.826592 3.334178 3.064129 -31.473450 36.823920 -40.778265 1.310731 0.000000 0.000000 0.000000 7.992443 6.997937 -4.230930 5.098929 -18.205150 13.256482 1.177909 2.107393 -1.604430 12.856462 -12.827649 60.588648 34.229636 49.505904 -8.415467 0.000000 0.000000 0.000000 
0.407431 52.703171 -3.594368 0.000000 0.000000 0.000000 178.349681 -8.246735 172.023451 -89.605511 -18.967551 12.914290 105.563155 4.253109 1.921368 -14.849367 3.920660 -15.597099 -8.798230 0.107246 2.690361 0.000000 0.000000 0.000000 178.043566 -4.614207 172.466607 -63.504053 18.127496 -24.739454 101.225425 3.149131 -1.110126 -22.446184 -6.906639 32.876713 -4.670080 -5.079635 -1.281992 0.000000 0.000000 0.000000 178.755681 -6.103385 169.679125 6.972612 4.736262 -2.821597 8.068132 7.195084 -3.826598 0.595582 -3.488657 0.751048 0.000000 0.000000 0.000000 7.808218 6.693354 -3.677298 -2.343590 23.874083 6.756294 6.460008 34.116826 -25.603463 0.000000 0.000000 0.000000 8.545818 6.954999 -3.932267 0.857695 -13.992107 -10.681122 -3.397017 -1.298646 -3.819419 3.223888 3.081025 -31.446410 36.797962 -40.886674 1.342084 0.000000 0.000000 0.000000 8.017529 7.023239 -4.210299 5.118072 -18.284888 13.150080 1.183118 2.123437 -1.629898 12.771853 -12.657465 60.730600 34.168066 49.218507 -8.406003 0.000000 0.000000 0.000000 
0.404646 52.714867 -3.584408 0.000000 0.000000 0.000000 178.307798 -8.330386 171.982784 -89.630332 -18.971790 12.860134 105.517933 4.227273 1.923705 -14.824410 3.878794 -15.572483 -8.783280 0.102061 2.685833 0.000000 0.000000 0.000000 178.005726 -4.701386 172.425325 -63.419242 18.125000 -24.769695 101.218431 3.110942 -1.098678 -22.467067 -6.958914 32.920897 -4.673940 -5.094111 -1.272969 0.000000 0.000000 0.000000 178.716052 -6.180834 169.646968 6.994893 4.756668 -2.824310 8.103729 7.222448 -3.805095 0.596862 -3.471379 0.754458 0.000000 0.000000 0.000000 7.837862 6.719451 -3.664201 -2.255862 23.845468 6.857254 6.706313 34.178311 -25.877555 0.000000 0.000000 0.000000 8.591184 6.972392 -3.913604 0.856404 -14.036061 -10.717607 -3.376828 -1.285855 -3.820944 3.097960 3.066371 -31.396464 36.763766 -41.002753 1.379191 0.000000 0.000000 0.000000 8.055772 7.046651 -4.193246 5.136809 -18.381895 13.044779 1.191518 2.155486 -1.653168 12.693491 -12.481385 60.898937 34.096970 48.898776 -8.386578 0.000000 0.000000 0.000000 
0.402482 52.726452 -3.575508 0.000000 0.000000 0.000000 178.279986 -8.416983 171.939016 -89.650686 -18.977564 12.811942 105.469445 4.202483 1.918753 -14.803424 3.844329 -15.539744 -8.773395 0.098594 2.672199 0.000000 0.000000 0.000000 177.981247 -4.791016 172.386612 -63.324234 18.117251 -24.801781 101.197237 3.074110 -1.086248 -22.494704 -7.011370 32.964091 -4.670220 -5.110486 -1.263940 0.000000 0.000000 0.000000 178.688090 -6.257587 169.614060 7.016152 4.782269 -2.828108 8.147814 7.248188 -3.786194 0.588636 -3.449041 0.753630 0.000000 0.000000 0.000000 7.879314 6.743994 -3.653719 -2.196836 23.815036 6.983448 6.945770 34.237116 -26.143336 0.000000 0.000000 0.000000 8.645352 6.988637 -3.898080 0.857587 -14.063920 -10.750630 -3.355212 -1.277310 -3.821478 2.978160 3.024587 -31.326164 36.718803 -41.111233 1.416120 0.000000 0.000000 0.000000 8.104103 7.067554 -4.180276 5.154225 -18.490972 12.943582 1.198942 2.196132 -1.670685 12.611817 -12.311686 61.086924 34.015268 48.555671 -8.355694 0.000000 0.000000 0.000000 
0.398329 52.735725 -3.566448 0.000000 0.000000 0.000000 178.264741 -8.503167 171.898171 -89.663629 -18.984202 12.769051 105.420541 4.182372 1.909592 -14.792516 3.821528 -15.499974 -8.769329 0.096633 2.654323 0.000000 0.000000 0.000000 177.967764 -4.879050 172.351846 -63.231139 18.107660 -24.836491 101.169001 3.044440 -1.074663 -22.523954 -7.053298 33.011947 -4.657179 -5.127401 -1.259075 0.000000 0.000000 0.000000 178.671602 -6.332085 169.581917 7.036277 4.808743 -2.833397 8.197014 7.271623 -3.770738 0.584260 -3.424311 0.751850 0.000000 0.000000 0.000000 7.926671 6.766184 -3.645536 -2.168438 23.783716 7.119797 7.162159 34.285989 -26.384351 0.000000 0.000000 0.000000 8.704040 7.003298 -3.885427 0.859382 -14.080194 -10.779279 -3.332115 -1.274093 -3.815079 2.875702 2.964732 -31.244045 36.661355 -41.204919 1.448377 0.000000 0.000000 0.000000 8.158821 7.086655 -4.171233 5.169760 -18.603885 12.849917 1.206331 2.237915 -1.685125 12.516131 -12.156235 61.278914 33.926619 48.206703 -8.317447 0.000000 0.000000 0.000000 
